<svg xmlns="http://www.w3.org/2000/svg" viewBox="0 0 41 41" width="328" height="328" shape-rendering="crispEdges" role="img" aria-label="QR code: bc1pmuuq249apm4zs83kmgj2f444xjzdzu6amlc8j056h4mvx9l7wekqy2wgv6"><rect width="41" height="41" fill="#fff"/><path fill="#1b1a2e" d="M4 4h7v1h-7zM12 4h4v1h-4zM20 4h1v1h-1zM22 4h3v1h-3zM27 4h1v1h-1zM30 4h7v1h-7zM4 5h1v1h-1zM10 5h1v1h-1zM12 5h1v1h-1zM15 5h3v1h-3zM22 5h1v1h-1zM27 5h1v1h-1zM30 5h1v1h-1zM36 5h1v1h-1zM4 6h1v1h-1zM6 6h3v1h-3zM10 6h1v1h-1zM13 6h1v1h-1zM15 6h3v1h-3zM20 6h1v1h-1zM22 6h3v1h-3zM26 6h1v1h-1zM30 6h1v1h-1zM32 6h3v1h-3zM36 6h1v1h-1zM4 7h1v1h-1zM6 7h3v1h-3zM10 7h1v1h-1zM12 7h4v1h-4zM17 7h1v1h-1zM20 7h2v1h-2zM23 7h2v1h-2zM28 7h1v1h-1zM30 7h1v1h-1zM32 7h3v1h-3zM36 7h1v1h-1zM4 8h1v1h-1zM6 8h3v1h-3zM10 8h1v1h-1zM13 8h1v1h-1zM15 8h3v1h-3zM19 8h3v1h-3zM23 8h1v1h-1zM25 8h2v1h-2zM28 8h1v1h-1zM30 8h1v1h-1zM32 8h3v1h-3zM36 8h1v1h-1zM4 9h1v1h-1zM10 9h1v1h-1zM13 9h1v1h-1zM15 9h1v1h-1zM21 9h4v1h-4zM30 9h1v1h-1zM36 9h1v1h-1zM4 10h7v1h-7zM12 10h1v1h-1zM14 10h1v1h-1zM16 10h1v1h-1zM18 10h1v1h-1zM20 10h1v1h-1zM22 10h1v1h-1zM24 10h1v1h-1zM26 10h1v1h-1zM28 10h1v1h-1zM30 10h7v1h-7zM12 11h2v1h-2zM15 11h1v1h-1zM18 11h6v1h-6zM26 11h1v1h-1zM28 11h1v1h-1zM4 12h1v1h-1zM6 12h2v1h-2zM9 12h3v1h-3zM13 12h2v1h-2zM16 12h1v1h-1zM18 12h1v1h-1zM21 12h3v1h-3zM25 12h2v1h-2zM28 12h1v1h-1zM30 12h1v1h-1zM33 12h1v1h-1zM35 12h2v1h-2zM4 13h3v1h-3zM13 13h1v1h-1zM15 13h1v1h-1zM18 13h1v1h-1zM20 13h1v1h-1zM22 13h6v1h-6zM29 13h2v1h-2zM34 13h3v1h-3zM5 14h1v1h-1zM7 14h2v1h-2zM10 14h1v1h-1zM13 14h1v1h-1zM17 14h1v1h-1zM21 14h2v1h-2zM26 14h3v1h-3zM30 14h2v1h-2zM34 14h3v1h-3zM5 15h2v1h-2zM8 15h1v1h-1zM12 15h4v1h-4zM17 15h1v1h-1zM22 15h1v1h-1zM26 15h1v1h-1zM30 15h3v1h-3zM35 15h2v1h-2zM6 16h1v1h-1zM10 16h2v1h-2zM13 16h4v1h-4zM19 16h1v1h-1zM21 16h1v1h-1zM23 16h2v1h-2zM26 16h1v1h-1zM31 16h3v1h-3zM36 16h1v1h-1zM4 17h3v1h-3zM11 17h1v1h-1zM13 17h1v1h-1zM16 17h1v1h-1zM18 17h3v1h-3zM23 17h2v1h-2zM29 17h1v1h-1zM31 17h1v1h-1zM4 18h4v1h-4zM10 18h4v1h-4zM15 18h1v1h-1zM17 18h1v1h-1zM21 18h1v1h-1zM23 18h1v1h-1zM28 18h2v1h-2zM32 18h2v1h-2zM7 19h1v1h-1zM9 19h1v1h-1zM11 19h2v1h-2zM18 19h1v1h-1zM20 19h1v1h-1zM22 19h1v1h-1zM24 19h2v1h-2zM29 19h1v1h-1zM32 19h1v1h-1zM34 19h1v1h-1zM36 19h1v1h-1zM6 20h5v1h-5zM13 20h2v1h-2zM17 20h2v1h-2zM20 20h1v1h-1zM23 20h5v1h-5zM30 20h3v1h-3zM34 20h1v1h-1zM36 20h1v1h-1zM6 21h1v1h-1zM8 21h2v1h-2zM11 21h1v1h-1zM14 21h1v1h-1zM17 21h1v1h-1zM19 21h4v1h-4zM24 21h2v1h-2zM27 21h2v1h-2zM30 21h3v1h-3zM36 21h1v1h-1zM5 22h1v1h-1zM10 22h1v1h-1zM12 22h3v1h-3zM17 22h1v1h-1zM19 22h1v1h-1zM21 22h2v1h-2zM24 22h3v1h-3zM30 22h1v1h-1zM33 22h3v1h-3zM4 23h6v1h-6zM11 23h2v1h-2zM14 23h1v1h-1zM16 23h2v1h-2zM20 23h5v1h-5zM26 23h2v1h-2zM30 23h2v1h-2zM36 23h1v1h-1zM4 24h1v1h-1zM10 24h2v1h-2zM13 24h2v1h-2zM17 24h2v1h-2zM21 24h3v1h-3zM25 24h1v1h-1zM27 24h2v1h-2zM33 24h2v1h-2zM4 25h1v1h-1zM6 25h4v1h-4zM11 25h1v1h-1zM14 25h4v1h-4zM20 25h1v1h-1zM23 25h2v1h-2zM26 25h3v1h-3zM30 25h1v1h-1zM33 25h2v1h-2zM36 25h1v1h-1zM10 26h2v1h-2zM13 26h1v1h-1zM16 26h2v1h-2zM25 26h1v1h-1zM27 26h1v1h-1zM30 26h2v1h-2zM33 26h4v1h-4zM5 27h1v1h-1zM7 27h2v1h-2zM11 27h1v1h-1zM15 27h1v1h-1zM19 27h2v1h-2zM23 27h1v1h-1zM26 27h1v1h-1zM29 27h3v1h-3zM33 27h1v1h-1zM35 27h2v1h-2zM4 28h1v1h-1zM7 28h1v1h-1zM9 28h3v1h-3zM13 28h2v1h-2zM18 28h4v1h-4zM23 28h2v1h-2zM26 28h1v1h-1zM28 28h5v1h-5zM35 28h2v1h-2zM12 29h2v1h-2zM15 29h1v1h-1zM17 29h1v1h-1zM19 29h1v1h-1zM21 29h1v1h-1zM23 29h2v1h-2zM26 29h1v1h-1zM28 29h1v1h-1zM32 29h2v1h-2zM4 30h7v1h-7zM12 30h1v1h-1zM15 30h1v1h-1zM17 30h2v1h-2zM20 30h1v1h-1zM23 30h1v1h-1zM25 30h1v1h-1zM27 30h2v1h-2zM30 30h1v1h-1zM32 30h1v1h-1zM4 31h1v1h-1zM10 31h1v1h-1zM12 31h1v1h-1zM14 31h1v1h-1zM18 31h3v1h-3zM25 31h1v1h-1zM28 31h1v1h-1zM32 31h3v1h-3zM36 31h1v1h-1zM4 32h1v1h-1zM6 32h3v1h-3zM10 32h1v1h-1zM15 32h1v1h-1zM17 32h1v1h-1zM20 32h1v1h-1zM22 32h2v1h-2zM25 32h10v1h-10zM4 33h1v1h-1zM6 33h3v1h-3zM10 33h1v1h-1zM12 33h2v1h-2zM15 33h3v1h-3zM19 33h2v1h-2zM22 33h1v1h-1zM29 33h1v1h-1zM31 33h1v1h-1zM36 33h1v1h-1zM4 34h1v1h-1zM6 34h3v1h-3zM10 34h1v1h-1zM12 34h1v1h-1zM18 34h4v1h-4zM27 34h4v1h-4zM33 34h2v1h-2zM4 35h1v1h-1zM10 35h1v1h-1zM13 35h1v1h-1zM16 35h1v1h-1zM21 35h1v1h-1zM24 35h1v1h-1zM26 35h1v1h-1zM28 35h1v1h-1zM31 35h1v1h-1zM36 35h1v1h-1zM4 36h7v1h-7zM12 36h1v1h-1zM14 36h2v1h-2zM17 36h3v1h-3zM21 36h1v1h-1zM24 36h3v1h-3zM29 36h3v1h-3zM34 36h1v1h-1z"/></svg>
