<svg xmlns="http://www.w3.org/2000/svg" viewBox="0 0 49 49" width="392" height="392" role="img" aria-label="QR code: ethereum:0x2f46f5b575c4ae379b58d4471b37d2ed55397f6d"><rect width="49" height="49" fill="#fff"/><path shape-rendering="crispEdges" fill="#1b1a2e" d="M4 4h7v1h-7zM12 4h1v1h-1zM15 4h1v1h-1zM18 4h1v1h-1zM20 4h2v1h-2zM24 4h1v1h-1zM28 4h2v1h-2zM31 4h2v1h-2zM35 4h2v1h-2zM38 4h7v1h-7zM4 5h1v1h-1zM10 5h1v1h-1zM12 5h2v1h-2zM15 5h1v1h-1zM17 5h2v1h-2zM21 5h7v1h-7zM29 5h5v1h-5zM36 5h1v1h-1zM38 5h1v1h-1zM44 5h1v1h-1zM4 6h1v1h-1zM6 6h3v1h-3zM10 6h1v1h-1zM18 6h3v1h-3zM23 6h1v1h-1zM26 6h1v1h-1zM28 6h2v1h-2zM33 6h1v1h-1zM35 6h1v1h-1zM38 6h1v1h-1zM40 6h3v1h-3zM44 6h1v1h-1zM4 7h1v1h-1zM6 7h3v1h-3zM10 7h1v1h-1zM12 7h1v1h-1zM16 7h2v1h-2zM19 7h1v1h-1zM22 7h3v1h-3zM29 7h3v1h-3zM33 7h1v1h-1zM35 7h1v1h-1zM38 7h1v1h-1zM40 7h3v1h-3zM44 7h1v1h-1zM4 8h1v1h-1zM6 8h3v1h-3zM10 8h1v1h-1zM12 8h1v1h-1zM14 8h1v1h-1zM16 8h1v1h-1zM18 8h4v1h-4zM25 8h2v1h-2zM28 8h1v1h-1zM30 8h4v1h-4zM38 8h1v1h-1zM40 8h3v1h-3zM44 8h1v1h-1zM4 9h1v1h-1zM10 9h1v1h-1zM12 9h1v1h-1zM15 9h2v1h-2zM19 9h2v1h-2zM27 9h1v1h-1zM29 9h1v1h-1zM31 9h3v1h-3zM35 9h2v1h-2zM38 9h1v1h-1zM44 9h1v1h-1zM4 10h7v1h-7zM12 10h1v1h-1zM14 10h1v1h-1zM16 10h1v1h-1zM18 10h1v1h-1zM20 10h1v1h-1zM22 10h1v1h-1zM24 10h1v1h-1zM26 10h1v1h-1zM28 10h1v1h-1zM30 10h1v1h-1zM32 10h1v1h-1zM34 10h1v1h-1zM36 10h1v1h-1zM38 10h7v1h-7zM13 11h1v1h-1zM15 11h4v1h-4zM21 11h2v1h-2zM24 11h1v1h-1zM27 11h1v1h-1zM31 11h3v1h-3zM36 11h1v1h-1zM7 12h1v1h-1zM10 12h1v1h-1zM13 12h1v1h-1zM17 12h2v1h-2zM20 12h2v1h-2zM23 12h1v1h-1zM25 12h2v1h-2zM28 12h2v1h-2zM31 12h1v1h-1zM34 12h1v1h-1zM36 12h1v1h-1zM39 12h3v1h-3zM43 12h2v1h-2zM4 13h2v1h-2zM7 13h1v1h-1zM11 13h2v1h-2zM18 13h1v1h-1zM20 13h2v1h-2zM23 13h2v1h-2zM26 13h3v1h-3zM33 13h2v1h-2zM38 13h2v1h-2zM44 13h1v1h-1zM5 14h1v1h-1zM8 14h4v1h-4zM13 14h1v1h-1zM16 14h1v1h-1zM20 14h1v1h-1zM24 14h1v1h-1zM26 14h1v1h-1zM28 14h1v1h-1zM30 14h1v1h-1zM34 14h2v1h-2zM37 14h1v1h-1zM40 14h1v1h-1zM42 14h1v1h-1zM4 15h2v1h-2zM14 15h2v1h-2zM18 15h2v1h-2zM22 15h1v1h-1zM24 15h2v1h-2zM29 15h2v1h-2zM32 15h1v1h-1zM34 15h2v1h-2zM37 15h3v1h-3zM42 15h1v1h-1zM10 16h1v1h-1zM13 16h1v1h-1zM16 16h1v1h-1zM21 16h2v1h-2zM24 16h1v1h-1zM26 16h2v1h-2zM30 16h1v1h-1zM33 16h1v1h-1zM35 16h2v1h-2zM38 16h2v1h-2zM41 16h1v1h-1zM43 16h2v1h-2zM4 17h1v1h-1zM6 17h1v1h-1zM8 17h2v1h-2zM13 17h4v1h-4zM19 17h1v1h-1zM22 17h1v1h-1zM24 17h2v1h-2zM27 17h7v1h-7zM36 17h1v1h-1zM39 17h1v1h-1zM41 17h1v1h-1zM4 18h2v1h-2zM9 18h3v1h-3zM13 18h2v1h-2zM19 18h1v1h-1zM21 18h2v1h-2zM24 18h1v1h-1zM28 18h1v1h-1zM30 18h1v1h-1zM35 18h1v1h-1zM38 18h1v1h-1zM40 18h1v1h-1zM42 18h1v1h-1zM44 18h1v1h-1zM4 19h1v1h-1zM6 19h1v1h-1zM8 19h1v1h-1zM12 19h1v1h-1zM19 19h1v1h-1zM28 19h2v1h-2zM31 19h1v1h-1zM33 19h2v1h-2zM36 19h3v1h-3zM41 19h1v1h-1zM4 20h1v1h-1zM7 20h5v1h-5zM13 20h5v1h-5zM19 20h1v1h-1zM29 20h2v1h-2zM33 20h1v1h-1zM37 20h1v1h-1zM39 20h1v1h-1zM43 20h1v1h-1zM6 21h2v1h-2zM9 21h1v1h-1zM11 21h2v1h-2zM14 21h2v1h-2zM18 21h1v1h-1zM30 21h1v1h-1zM32 21h2v1h-2zM36 21h4v1h-4zM41 21h1v1h-1zM43 21h2v1h-2zM5 22h1v1h-1zM9 22h3v1h-3zM17 22h2v1h-2zM30 22h1v1h-1zM33 22h1v1h-1zM36 22h5v1h-5zM42 22h3v1h-3zM4 23h2v1h-2zM7 23h3v1h-3zM13 23h1v1h-1zM15 23h2v1h-2zM18 23h1v1h-1zM31 23h1v1h-1zM35 23h1v1h-1zM41 23h1v1h-1zM43 23h1v1h-1zM4 24h1v1h-1zM10 24h3v1h-3zM15 24h2v1h-2zM18 24h1v1h-1zM30 24h1v1h-1zM33 24h1v1h-1zM36 24h1v1h-1zM38 24h2v1h-2zM42 24h3v1h-3zM5 25h4v1h-4zM11 25h1v1h-1zM13 25h2v1h-2zM16 25h1v1h-1zM18 25h1v1h-1zM33 25h1v1h-1zM38 25h1v1h-1zM41 25h1v1h-1zM43 25h2v1h-2zM5 26h1v1h-1zM9 26h3v1h-3zM15 26h1v1h-1zM30 26h1v1h-1zM32 26h1v1h-1zM34 26h2v1h-2zM37 26h1v1h-1zM39 26h1v1h-1zM43 26h1v1h-1zM7 27h1v1h-1zM9 27h1v1h-1zM12 27h2v1h-2zM15 27h2v1h-2zM32 27h1v1h-1zM36 27h1v1h-1zM38 27h2v1h-2zM41 27h2v1h-2zM44 27h1v1h-1zM5 28h6v1h-6zM12 28h3v1h-3zM16 28h3v1h-3zM29 28h2v1h-2zM32 28h2v1h-2zM36 28h1v1h-1zM38 28h2v1h-2zM41 28h1v1h-1zM44 28h1v1h-1zM7 29h1v1h-1zM11 29h2v1h-2zM16 29h2v1h-2zM30 29h1v1h-1zM33 29h4v1h-4zM39 29h1v1h-1zM41 29h1v1h-1zM4 30h2v1h-2zM7 30h6v1h-6zM14 30h2v1h-2zM22 30h1v1h-1zM24 30h1v1h-1zM26 30h1v1h-1zM30 30h1v1h-1zM32 30h2v1h-2zM36 30h5v1h-5zM44 30h1v1h-1zM4 31h1v1h-1zM6 31h1v1h-1zM9 31h1v1h-1zM12 31h2v1h-2zM17 31h1v1h-1zM19 31h1v1h-1zM21 31h1v1h-1zM23 31h1v1h-1zM25 31h4v1h-4zM30 31h1v1h-1zM33 31h6v1h-6zM7 32h1v1h-1zM9 32h2v1h-2zM12 32h2v1h-2zM15 32h1v1h-1zM17 32h4v1h-4zM23 32h1v1h-1zM25 32h2v1h-2zM28 32h1v1h-1zM30 32h1v1h-1zM33 32h5v1h-5zM39 32h1v1h-1zM41 32h1v1h-1zM43 32h1v1h-1zM6 33h4v1h-4zM15 33h1v1h-1zM17 33h1v1h-1zM21 33h1v1h-1zM24 33h9v1h-9zM34 33h5v1h-5zM42 33h1v1h-1zM44 33h1v1h-1zM4 34h1v1h-1zM6 34h1v1h-1zM9 34h3v1h-3zM15 34h1v1h-1zM21 34h2v1h-2zM26 34h3v1h-3zM31 34h2v1h-2zM36 34h3v1h-3zM41 34h2v1h-2zM44 34h1v1h-1zM6 35h1v1h-1zM8 35h2v1h-2zM12 35h2v1h-2zM17 35h1v1h-1zM19 35h2v1h-2zM23 35h2v1h-2zM26 35h1v1h-1zM30 35h1v1h-1zM33 35h1v1h-1zM36 35h1v1h-1zM38 35h2v1h-2zM41 35h1v1h-1zM43 35h1v1h-1zM4 36h1v1h-1zM6 36h2v1h-2zM9 36h3v1h-3zM13 36h2v1h-2zM17 36h3v1h-3zM21 36h2v1h-2zM24 36h5v1h-5zM31 36h2v1h-2zM34 36h1v1h-1zM36 36h5v1h-5zM42 36h1v1h-1zM44 36h1v1h-1zM12 37h1v1h-1zM19 37h8v1h-8zM28 37h1v1h-1zM32 37h5v1h-5zM40 37h1v1h-1zM44 37h1v1h-1zM4 38h7v1h-7zM14 38h5v1h-5zM21 38h1v1h-1zM24 38h2v1h-2zM29 38h2v1h-2zM34 38h1v1h-1zM36 38h1v1h-1zM38 38h1v1h-1zM40 38h3v1h-3zM4 39h1v1h-1zM10 39h1v1h-1zM16 39h4v1h-4zM21 39h1v1h-1zM24 39h3v1h-3zM28 39h3v1h-3zM34 39h1v1h-1zM36 39h1v1h-1zM40 39h4v1h-4zM4 40h1v1h-1zM6 40h3v1h-3zM10 40h1v1h-1zM13 40h2v1h-2zM18 40h1v1h-1zM21 40h2v1h-2zM24 40h1v1h-1zM26 40h2v1h-2zM29 40h2v1h-2zM34 40h1v1h-1zM36 40h6v1h-6zM43 40h2v1h-2zM4 41h1v1h-1zM6 41h3v1h-3zM10 41h1v1h-1zM12 41h3v1h-3zM17 41h1v1h-1zM19 41h5v1h-5zM25 41h1v1h-1zM27 41h1v1h-1zM29 41h1v1h-1zM32 41h1v1h-1zM34 41h2v1h-2zM38 41h3v1h-3zM42 41h1v1h-1zM4 42h1v1h-1zM6 42h3v1h-3zM10 42h1v1h-1zM13 42h1v1h-1zM16 42h2v1h-2zM20 42h2v1h-2zM25 42h2v1h-2zM29 42h2v1h-2zM33 42h2v1h-2zM37 42h1v1h-1zM40 42h2v1h-2zM44 42h1v1h-1zM4 43h1v1h-1zM10 43h1v1h-1zM13 43h2v1h-2zM17 43h1v1h-1zM19 43h3v1h-3zM23 43h1v1h-1zM25 43h2v1h-2zM28 43h3v1h-3zM33 43h1v1h-1zM35 43h2v1h-2zM39 43h1v1h-1zM41 43h1v1h-1zM43 43h1v1h-1zM4 44h7v1h-7zM13 44h2v1h-2zM17 44h2v1h-2zM20 44h3v1h-3zM24 44h1v1h-1zM27 44h4v1h-4zM32 44h3v1h-3zM36 44h2v1h-2zM43 44h1v1h-1z"/><svg x="20" y="20" width="9" height="9" viewBox="0 0 32 32"><circle cx="16" cy="16" r="16" fill="#627eea"/><g fill="#fff"><path d="M16 4.8v8.3l7 3.1z" fill-opacity=".6"/><path d="M16 4.8l-7 11.4 7-3.1z"/><path d="M16 21.6v5.6l7-9.7z" fill-opacity=".6"/><path d="M16 27.2v-5.6l-7-4.1z"/><path d="M16 20.3l7-4.1-7-3.1z" fill-opacity=".2"/><path d="M9 16.2l7 4.1v-7.2z" fill-opacity=".6"/></g></svg></svg>
