<svg xmlns="http://www.w3.org/2000/svg" viewBox="0 0 37 37" width="296" height="296" shape-rendering="crispEdges" role="img" aria-label="QR code: 0x2f46f5b575c4ae379b58d4471b37d2ed55397f6d"><rect width="37" height="37" fill="#fff"/><path fill="#1b1a2e" d="M4 4h7v1h-7zM12 4h1v1h-1zM17 4h1v1h-1zM19 4h1v1h-1zM22 4h1v1h-1zM26 4h7v1h-7zM4 5h1v1h-1zM10 5h1v1h-1zM13 5h1v1h-1zM15 5h1v1h-1zM18 5h1v1h-1zM20 5h1v1h-1zM23 5h2v1h-2zM26 5h1v1h-1zM32 5h1v1h-1zM4 6h1v1h-1zM6 6h3v1h-3zM10 6h1v1h-1zM14 6h3v1h-3zM18 6h2v1h-2zM21 6h1v1h-1zM26 6h1v1h-1zM28 6h3v1h-3zM32 6h1v1h-1zM4 7h1v1h-1zM6 7h3v1h-3zM10 7h1v1h-1zM12 7h1v1h-1zM15 7h3v1h-3zM19 7h1v1h-1zM23 7h2v1h-2zM26 7h1v1h-1zM28 7h3v1h-3zM32 7h1v1h-1zM4 8h1v1h-1zM6 8h3v1h-3zM10 8h1v1h-1zM12 8h5v1h-5zM19 8h1v1h-1zM24 8h1v1h-1zM26 8h1v1h-1zM28 8h3v1h-3zM32 8h1v1h-1zM4 9h1v1h-1zM10 9h1v1h-1zM12 9h2v1h-2zM15 9h4v1h-4zM20 9h1v1h-1zM23 9h1v1h-1zM26 9h1v1h-1zM32 9h1v1h-1zM4 10h7v1h-7zM12 10h1v1h-1zM14 10h1v1h-1zM16 10h1v1h-1zM18 10h1v1h-1zM20 10h1v1h-1zM22 10h1v1h-1zM24 10h1v1h-1zM26 10h7v1h-7zM12 11h1v1h-1zM15 11h2v1h-2zM18 11h2v1h-2zM21 11h1v1h-1zM24 11h1v1h-1zM4 12h1v1h-1zM8 12h1v1h-1zM10 12h3v1h-3zM15 12h1v1h-1zM18 12h1v1h-1zM20 12h4v1h-4zM25 12h5v1h-5zM32 12h1v1h-1zM6 13h1v1h-1zM8 13h2v1h-2zM11 13h1v1h-1zM13 13h1v1h-1zM16 13h2v1h-2zM19 13h1v1h-1zM24 13h1v1h-1zM26 13h3v1h-3zM30 13h1v1h-1zM32 13h1v1h-1zM8 14h1v1h-1zM10 14h1v1h-1zM14 14h2v1h-2zM17 14h6v1h-6zM25 14h2v1h-2zM30 14h1v1h-1zM32 14h1v1h-1zM4 15h1v1h-1zM6 15h1v1h-1zM8 15h2v1h-2zM11 15h6v1h-6zM18 15h2v1h-2zM21 15h1v1h-1zM23 15h1v1h-1zM31 15h1v1h-1zM5 16h2v1h-2zM8 16h5v1h-5zM14 16h1v1h-1zM16 16h1v1h-1zM21 16h4v1h-4zM27 16h1v1h-1zM4 17h2v1h-2zM7 17h1v1h-1zM11 17h2v1h-2zM14 17h2v1h-2zM17 17h4v1h-4zM25 17h2v1h-2zM28 17h1v1h-1zM30 17h3v1h-3zM5 18h1v1h-1zM7 18h7v1h-7zM17 18h3v1h-3zM22 18h1v1h-1zM24 18h1v1h-1zM26 18h1v1h-1zM28 18h1v1h-1zM31 18h2v1h-2zM7 19h3v1h-3zM13 19h1v1h-1zM15 19h1v1h-1zM19 19h1v1h-1zM21 19h2v1h-2zM25 19h2v1h-2zM31 19h2v1h-2zM4 20h1v1h-1zM6 20h3v1h-3zM10 20h2v1h-2zM14 20h1v1h-1zM18 20h1v1h-1zM21 20h2v1h-2zM25 20h1v1h-1zM27 20h1v1h-1zM32 20h1v1h-1zM4 21h1v1h-1zM6 21h2v1h-2zM11 21h2v1h-2zM14 21h1v1h-1zM16 21h2v1h-2zM19 21h2v1h-2zM24 21h1v1h-1zM26 21h1v1h-1zM28 21h1v1h-1zM30 21h3v1h-3zM6 22h1v1h-1zM9 22h4v1h-4zM15 22h1v1h-1zM17 22h5v1h-5zM24 22h3v1h-3zM30 22h1v1h-1zM32 22h1v1h-1zM7 23h2v1h-2zM13 23h2v1h-2zM20 23h5v1h-5zM26 23h1v1h-1zM29 23h1v1h-1zM31 23h2v1h-2zM4 24h2v1h-2zM8 24h1v1h-1zM10 24h1v1h-1zM12 24h3v1h-3zM20 24h2v1h-2zM23 24h7v1h-7zM12 25h1v1h-1zM14 25h1v1h-1zM17 25h3v1h-3zM22 25h1v1h-1zM24 25h1v1h-1zM28 25h1v1h-1zM30 25h3v1h-3zM4 26h7v1h-7zM12 26h5v1h-5zM18 26h3v1h-3zM23 26h2v1h-2zM26 26h1v1h-1zM28 26h1v1h-1zM30 26h3v1h-3zM4 27h1v1h-1zM10 27h1v1h-1zM13 27h1v1h-1zM15 27h2v1h-2zM19 27h1v1h-1zM21 27h1v1h-1zM24 27h1v1h-1zM28 27h1v1h-1zM31 27h1v1h-1zM4 28h1v1h-1zM6 28h3v1h-3zM10 28h1v1h-1zM12 28h1v1h-1zM14 28h5v1h-5zM21 28h8v1h-8zM32 28h1v1h-1zM4 29h1v1h-1zM6 29h3v1h-3zM10 29h1v1h-1zM13 29h1v1h-1zM18 29h3v1h-3zM25 29h1v1h-1zM27 29h1v1h-1zM30 29h1v1h-1zM32 29h1v1h-1zM4 30h1v1h-1zM6 30h3v1h-3zM10 30h1v1h-1zM14 30h3v1h-3zM19 30h1v1h-1zM25 30h1v1h-1zM27 30h1v1h-1zM29 30h1v1h-1zM31 30h2v1h-2zM4 31h1v1h-1zM10 31h1v1h-1zM14 31h1v1h-1zM16 31h1v1h-1zM21 31h4v1h-4zM26 31h4v1h-4zM31 31h2v1h-2zM4 32h7v1h-7zM12 32h4v1h-4zM18 32h1v1h-1zM20 32h6v1h-6zM28 32h2v1h-2zM31 32h1v1h-1z"/></svg>
